<?xml version="1.0" encoding="UTF-8" standalone="no"?>

<svg
   width="1024px"
   height="512px"
   viewBox="0 0 210 297"
   version="1.1"
   id="svg5"
   xmlns="http://www.w3.org/2000/svg"
   xmlns:svg="http://www.w3.org/2000/svg">
  <defs id="defs2">
    <rect
       x="960.04506"
       y="298.27662"
       width="912.14073"
       height="135.29817"
       id="rect18987" />
    <rect
       x="214.6559"
       y="111.1297"
       width="434.45966"
       height="199.8582"
       id="rect14331" />
    <rect
       x="381.50875"
       y="335.52857"
       width="232.76733"
       height="126.05921"
       id="rect2185" />
    <rect
       x="381.50876"
       y="335.52856"
       width="352.16914"
       height="148.63706"
       id="rect2185-3" />
  </defs>
  <g id="layer1">
    <rect
       style="fill:#ffffff;stroke:#5555ff;stroke-width:4.1889;stroke-miterlimit:4;stroke-dasharray:none"
       id="rect908"
       width="176.79549"
       height="176.79547"
       x="130.29758"
       y="65.29998"
       ry="52.458385" />
    <text
       xml:space="preserve"
       transform="matrix(0.58007812,0,0,0.58007812,-49.66496,4.6120307)"
       id="text2183"
       style="font-style:normal;font-weight:normal;font-size:40px;line-height:1.25;font-family:sans-serif;white-space:pre;shape-inside:url(#rect2185);fill:#5555ff;fill-opacity:1;stroke:none"><tspan
         x="381.50781"
         y="375.7293"
         id="tspan1087">int (数字)</tspan></text>
    <rect
       style="fill:#ffffff;stroke:#ff5555;stroke-width:4.1889;stroke-miterlimit:4;stroke-dasharray:none"
       id="rect908-6"
       width="176.79547"
       height="176.79547"
       x="-97.093048"
       y="60.102264"
       ry="52.458389" />
    <text
       xml:space="preserve"
       transform="matrix(0.58007812,0,0,0.58007812,-292.35887,4.6120307)"
       id="text2183-7"
       style="font-style:normal;font-weight:normal;font-size:40px;line-height:1.25;font-family:sans-serif;white-space:pre;shape-inside:url(#rect2185-3);fill:#ff5555;fill-opacity:1;stroke:none"><tspan
         x="381.50781"
         y="375.7293"
         id="tspan1089">string (文字)</tspan></text>
    <text
       xml:space="preserve"
       transform="matrix(0.58007812,0,0,0.58007812,-192,0)"
       id="text14329"
       style="fill:black;fill-opacity:1;line-height:1.25;stroke:none;font-family:sans-serif;font-style:normal;font-weight:normal;font-size:40px;white-space:pre;shape-inside:url(#rect14331)" />
    <text
       xml:space="preserve"
       style="font-style:normal;font-weight:normal;font-size:49.5px;line-height:1.25;font-family:sans-serif;fill:#000000;fill-opacity:1;stroke:none;stroke-width:0.580078"
       x="-74.109993"
       y="163.66954"
       id="text16009"><tspan
         id="tspan16007"
         style="font-size:49.5px;stroke-width:0.580078;fill:black"
         x="-74.109993"
         y="163.66954">Apple</tspan></text>
    <text
       xml:space="preserve"
       style="font-style:normal;font-weight:normal;font-size:49.5px;line-height:1.25;font-family:sans-serif;fill:#000000;fill-opacity:1;stroke:none;stroke-width:0.580078"
       x="179.00314"
       y="168.74367"
       id="text17003"><tspan
         id="tspan17001"
         style="font-size:49.5px;stroke-width:0.580078;fill:black"
         x="179.00314"
         y="168.74367">200</tspan></text>
    <text
       xml:space="preserve"
       transform="matrix(0.58007812,0,0,0.58007812,-192,0)"
       id="text18985"
       style="fill:black;fill-opacity:1;line-height:1.25;stroke:none;font-family:sans-serif;font-style:normal;font-weight:normal;font-size:40px;white-space:pre;shape-inside:url(#rect18987)" />
    <path
       style="fill:#ff5555;stroke:none;stroke-width:4.38485;stroke-miterlimit:4;stroke-dasharray:none"
       id="path26931"
       d="m 57.576336,271.10786 c -4.973196,0.22626 -10.03708,0.3357 -14.929929,-0.76643 -1.325908,-0.29866 -2.61418,-0.74497 -3.921264,-1.11746 -7.024468,-2.9213 -13.281776,-7.49333 -18.364374,-13.14916 -0.755245,-0.84043 -1.429296,-1.75042 -2.143946,-2.62563 -1.952839,-2.81048 -1.090773,-1.45558 -2.624018,-4.0404 0,0 -7.1886127,4.19169 -7.1886127,4.19169 v 0 c 1.7357157,2.55341 0.7734936,1.21413 2.9174047,3.99559 0.763133,0.87148 1.490191,1.77591 2.289388,2.61444 5.315413,5.57696 11.572843,10.25 18.581475,13.47124 1.297837,0.41951 2.57224,0.91997 3.893507,1.25854 4.755074,1.2185 9.692369,1.10667 14.554149,1.21623 0,0 6.93622,-5.04865 6.93622,-5.04865 z" />
    <path
       style="fill:#ff5555;stroke:none;stroke-width:4.38485;stroke-miterlimit:4;stroke-dasharray:none"
       id="path26933"
       d="m 8.2989082,266.75517 c 0.3456279,-3.75404 0.6159269,-7.51493 0.8653837,-11.27718 0.2230748,-1.08783 -0.0065,-3.80891 0.5320012,-4.81301 0.1652759,-0.30817 1.0695079,-0.89313 0.7702449,-0.71223 -1.9551994,1.18193 -4.0842834,2.16491 -5.753638,3.72473 -0.5246922,0.49027 1.418552,-0.22453 2.1278252,-0.3368 3.1777958,-0.1819 6.3603588,-0.043 9.5376328,0.0598 0,0 6.535711,-4.71424 6.535711,-4.71424 v 0 c -3.131116,-0.1141 -6.26174,-0.26205 -9.395067,-0.29892 -5.2156852,0.21177 -2.804904,-0.21186 -10.8904619,4.94091 -0.3424027,0.21821 -0.4542186,0.68601 -0.5756927,1.07343 -0.4455638,1.42106 -0.028772,3.35042 -0.3017044,4.79503 -0.2274081,3.81806 -0.550964,7.63483 -1.20054132,11.40743 0,0 7.74830652,-3.84893 7.74830652,-3.84893 z" />
    <path
       style="fill:#ff5555;stroke:none;stroke-width:4.38485;stroke-miterlimit:4;stroke-dasharray:none"
       id="path26935"
       d="m 70.912865,257.35622 c -0.08529,4.54515 -0.463552,9.07835 -0.669212,13.61955 -0.233058,3.71633 0.134305,7.4037 0.723026,11.06566 0,0 7.35238,-3.91928 7.35238,-3.91928 v 0 c -0.765506,-3.55862 -1.103813,-7.15569 -0.808658,-10.80048 0.281576,-4.61209 0.646028,-9.22041 1.119238,-13.81697 0,0 -7.716774,3.85152 -7.716774,3.85152 z" />
    <path
       style="fill:#ff5555;stroke:none;stroke-width:4.38485;stroke-miterlimit:4;stroke-dasharray:none"
       id="path26937"
       d="m 80.666908,260.68214 c 3.880398,-0.75675 7.879509,-0.61919 11.815687,-0.62357 0,0 6.668212,-4.84527 6.668212,-4.84527 v 0 c -3.859422,-3.2e-4 -7.735434,-0.13872 -11.582251,0.22779 0,0 -6.901648,5.24105 -6.901648,5.24105 z" />
    <path
       style="fill:#ff5555;stroke:none;stroke-width:4.38485;stroke-miterlimit:4;stroke-dasharray:none"
       id="path26939"
       d="m 95.486686,254.59358 c -0.273577,4.74426 -0.581279,9.49062 -0.934744,14.2306 -0.347438,3.19276 -0.460756,6.42607 -1.096858,9.58308 -0.135964,0.6748 -0.224583,1.37651 -0.518712,1.99885 -0.204413,0.43252 -1.362116,1.30847 -0.938926,1.0854 2.1698,-1.1438 4.166272,-2.58986 6.249414,-3.88478 -0.254103,0.0211 -0.514802,0.12447 -0.76231,0.0632 -1.642102,-0.40643 -2.068674,-3.55737 -2.289371,-4.86038 -0.0145,-0.8726 -0.448389,-2.77674 -0.08552,-3.62253 0.107338,-0.25019 0.383252,-0.38674 0.574881,-0.5801 -1.951708,1.26106 -4.119715,2.23793 -5.855123,3.78318 -0.558285,0.49711 1.455346,-0.3423 2.183019,-0.51345 5.10883,-0.82696 10.288824,-0.44685 15.406794,0.0546 0,0 6.76347,-4.8183 6.76347,-4.8183 v 0 c -5.16019,-0.45935 -10.37784,-0.83173 -15.542564,-0.23815 -5.12651,0.6762 -3.011939,0.12024 -10.80294,5.19939 -0.830985,0.54174 -0.166418,3.92297 -0.113544,4.70077 0.335784,2.00012 0.764502,4.72546 2.75511,5.83449 0.332315,0.18515 0.728654,0.2189 1.092977,0.32835 2.727313,-1.61092 5.578913,-3.0279 8.181939,-4.83278 0.726932,-0.50404 0.986452,-2.77505 1.065152,-3.32751 0.44985,-3.15777 0.51028,-6.35813 0.88034,-9.52412 0.40741,-4.84425 0.83975,-9.68681 1.57327,-14.49486 0,0 -7.785759,3.83496 -7.785759,3.83496 z" />
    <path
       style="fill:#ff5555;stroke:none;stroke-width:4.38485;stroke-miterlimit:4;stroke-dasharray:none"
       id="path26941"
       d="m 120.65574,263.09462 c 3.2276,0.15874 6.39477,0.81657 9.58904,1.24738 1.0896,0.14695 2.18238,0.2694 3.27358,0.4041 1.1281,0.1566 2.2562,0.3132 3.3843,0.4698 3.6927,0.57977 1.97675,0.28048 5.15166,0.87568 0,0 6.78258,-4.76066 6.78258,-4.76066 v 0 c -3.33608,-0.47772 -1.55163,-0.22521 -5.35374,-0.75489 -5.29641,-0.77734 -10.58244,-1.61836 -15.87617,-2.4125 0,0 -6.95125,4.93109 -6.95125,4.93109 z" />
    <path
       style="fill:#ff5555;stroke:none;stroke-width:4.38485;stroke-miterlimit:4;stroke-dasharray:none"
       id="path26943"
       d="m 119.81454,283.78767 c 4.17829,0.78427 8.4444,0.89701 12.68211,1.05076 3.5837,0.0203 7.30956,0.13668 10.6265,-1.40101 0,0 6.65706,-5.36677 6.65706,-5.36677 v 0 c -0.298,0.1897 -0.57928,0.40867 -0.89401,0.5691 -2.96838,1.5131 -6.48391,1.28359 -9.7068,1.37804 -4.11342,-0.13079 -8.27304,-0.21712 -12.30373,-1.1292 0,0 -7.06113,4.89908 -7.06113,4.89908 z" />
  </g>
</svg>
